<?xml version="1.0" standalone="no"?>
<!DOCTYPE svg PUBLIC "-//W3C//DTD SVG 20010904//EN"
 "http://www.w3.org/TR/2001/REC-SVG-20010904/DTD/svg10.dtd">
<svg version="1.0" xmlns="http://www.w3.org/2000/svg"
 width="500.000000pt" height="500.000000pt" viewBox="0 0 500.000000 500.000000"
 preserveAspectRatio="xMidYMid meet">
<metadata>
Created by potrace 1.14, written by Peter Selinger 2001-2017
</metadata>
<g transform="translate(0.000000,500.000000) scale(0.100000,-0.100000)"
fill="#000000" stroke="none">
<path d="M2210 3633 c-234 -48 -470 -193 -596 -365 -40 -54 -22 -47 -309 -117
-238 -58 -268 -69 -295 -113 -25 -41 -29 -165 -6 -174 11 -4 15 -28 15 -102 0
-53 0 -123 1 -156 l0 -58 78 6 c42 4 91 9 107 11 17 2 68 7 115 10 47 4 88 9
91 11 10 6 164 18 241 18 63 1 82 -3 105 -20 32 -24 70 -93 77 -144 3 -19 8
-46 11 -60 2 -13 7 -42 10 -63 14 -90 32 -107 113 -100 42 4 52 2 52 -11 0
-24 -33 -36 -99 -36 -67 0 -84 14 -94 75 -3 17 -8 50 -12 75 -18 115 -46 195
-77 222 -29 24 -37 26 -115 25 -45 -1 -83 -4 -83 -7 0 -3 -19 -6 -43 -8 -23
-1 -51 -4 -62 -6 -11 -2 -26 2 -34 8 -12 9 -13 8 -7 -2 6 -11 1 -13 -20 -11
-16 2 -34 1 -39 -2 -11 -6 -78 -12 -147 -13 -27 -1 -48 -5 -48 -10 0 -5 -8 -2
-17 5 -11 10 -14 10 -9 2 5 -9 -2 -13 -26 -15 -67 -3 -88 -5 -93 -10 -14 -14
-12 -48 4 -62 15 -14 18 -35 18 -145 1 -103 -2 -131 -13 -135 -16 -6 -19 -62
-4 -71 6 -4 7 -13 1 -23 -5 -9 -9 -54 -10 -99 l0 -83 57 -1 c31 -1 72 0 90 1
l32 2 1 -64 c1 -113 21 -188 70 -261 42 -64 76 -77 204 -77 l107 0 42 43 c38
38 65 85 81 145 l6 22 260 0 c278 0 262 3 259 -42 0 -2 7 -28 16 -58 34 -116
95 -205 165 -241 32 -16 59 -19 172 -19 180 0 214 12 274 95 58 80 104 185
112 258 1 4 66 7 144 7 l144 0 11 -37 c16 -52 68 -112 116 -134 32 -15 65 -19
156 -18 122 0 147 6 198 50 48 42 111 185 121 277 1 4 20 8 43 9 24 1 51 2 61
2 15 1 17 14 17 131 l0 130 -28 0 c-26 0 -28 -3 -24 -32 l4 -33 -524 1 c-288
0 -527 -3 -533 -7 -5 -4 -9 -46 -9 -93 1 -66 -2 -86 -13 -90 -8 -4 -19 -4 -24
0 -5 3 -9 60 -9 127 l0 122 128 0 127 1 1 79 c1 49 -4 91 -12 109 -18 38 -19
36 15 36 16 0 31 -6 33 -12 2 -7 3 -58 3 -113 l-1 -101 236 1 235 1 2 54 c1
30 2 81 2 113 l1 57 40 0 39 0 -21 -36 c-16 -28 -22 -55 -23 -110 -1 -44 3
-75 10 -77 5 -2 57 -3 115 -2 98 1 105 3 102 21 -6 30 -42 84 -58 84 -23 0
-16 15 19 41 22 17 50 26 90 29 31 3 57 8 57 13 0 4 0 40 0 80 l0 72 -58 -1
-59 -2 0 67 c-1 75 -20 127 -62 170 -51 53 -86 64 -211 68 -63 3 -117 7 -119
9 -3 3 -5 56 -6 118 l-1 114 53 12 c29 6 53 17 54 23 1 7 1 52 1 100 0 82 -2
92 -28 130 -48 67 -75 76 -289 92 -16 2 -49 3 -72 4 -35 1 -48 7 -78 40 -43
47 -189 147 -265 183 -67 32 -167 64 -236 77 -72 14 -267 10 -344 -6z m816
-389 c1 -9 0 -13 -4 -10 -3 4 -7 14 -8 22 -1 9 0 13 4 10 3 -4 7 -14 8 -22z
m41 19 c-4 -3 -1 -13 6 -22 11 -14 10 -14 -5 -2 -16 12 -16 31 -1 31 4 0 3 -3
0 -7z m98 -3 c3 -5 1 -10 -4 -10 -6 0 -11 5 -11 10 0 6 2 10 4 10 3 0 8 -4 11
-10z m279 -66 c3 -8 2 -12 -4 -9 -6 3 -10 10 -10 16 0 14 7 11 14 -7z m-1497
-59 c0 -8 -4 -12 -9 -9 -5 3 -6 10 -3 15 9 13 12 11 12 -6z m-406 -88 c-10 -9
-11 -8 -5 6 3 10 9 15 12 12 3 -3 0 -11 -7 -18z m-276 -46 c-9 -8 -36 -10 -30
-2 2 4 11 8 20 8 8 0 13 -3 10 -6z m1590 -121 c-3 -5 -12 -10 -18 -10 -7 0 -6
4 3 10 19 12 23 12 15 0z m170 -89 c3 -5 2 -12 -3 -15 -5 -3 -9 1 -9 9 0 17 3
19 12 6z m-450 -150 c-9 -8 -36 -10 -30 -2 2 4 11 8 20 8 8 0 13 -3 10 -6z
m-285 -25 c0 -2 -8 -10 -17 -17 -16 -13 -17 -12 -4 4 13 16 21 21 21 13z m281
-13 c13 -16 12 -17 -3 -4 -10 7 -18 15 -18 17 0 8 8 3 21 -13z m-351 3 c0 -2
-8 -10 -17 -17 -16 -13 -17 -12 -4 4 13 16 21 21 21 13z m27 -11 c0 -8 -4 -12
-9 -9 -5 3 -6 10 -3 15 9 13 12 11 12 -6z m183 -9 c0 -3 -4 -8 -10 -11 -5 -3
-10 -1 -10 4 0 6 5 11 10 11 6 0 10 -2 10 -4z m188 -183 c-2 -21 -9 -27 -28
-29 -14 0 -72 -4 -130 -9 -58 -4 -121 -9 -140 -10 -19 -2 -95 -6 -168 -10 -74
-4 -141 -8 -150 -9 -10 -1 -18 8 -20 21 -4 27 13 31 178 39 69 3 141 7 160 9
19 2 89 6 155 10 66 4 122 9 124 11 13 12 22 1 19 -23z m212 -5 c11 -12 18
-24 15 -26 -10 -10 -150 0 -157 11 -19 30 -8 37 57 37 53 0 68 -4 85 -22z
m-1416 -27 c5 -8 -74 -3 -83 5 -2 2 14 4 37 4 22 0 43 -4 46 -9z m2466 -8 c0
-25 -6 -28 -65 -29 -73 0 -81 3 -61 25 19 21 126 24 126 4z m-1782 -226 c-27
-72 -51 -138 -53 -144 -5 -15 -35 -18 -35 -4 0 11 63 191 84 243 15 34 33 50
48 42 3 -2 -16 -64 -44 -137z m289 78 c0 -8 -4 -15 -9 -15 -4 0 -8 7 -8 15 0
8 4 15 8 15 5 0 9 -7 9 -15z m161 -9 c49 -25 118 -97 105 -110 -3 -3 -2 -6 4
-6 14 0 35 -49 27 -62 -4 -6 -2 -8 3 -5 9 6 13 -4 28 -70 2 -7 -1 -13 -6 -13
-6 0 -7 -5 -4 -10 4 -6 11 -8 16 -5 15 10 10 -1 -6 -15 -13 -11 -19 -4 -40 46
-43 100 -79 165 -105 191 -36 36 -97 65 -133 63 -43 -3 -49 -1 -43 8 3 5 27 9
55 11 37 1 63 -5 99 -23z m-75 -175 c11 -1 62 -53 81 -83 63 -97 53 -319 -18
-400 -54 -64 -112 -67 -171 -9 -86 83 -104 283 -37 406 30 55 83 97 116 91 11
-3 24 -5 29 -5z m-1079 -30 c72 -62 83 -259 19 -358 -19 -28 -69 -46 -93 -33
-105 56 -110 338 -7 400 31 19 50 17 81 -9z m612 -94 c3 -3 3 -15 -1 -26 -6
-20 -12 -21 -230 -21 l-223 0 -4 25 c-5 23 -2 24 46 27 84 5 406 1 412 -5z"/>
<path d="M2409 1966 c-37 -18 -73 -101 -77 -181 -6 -118 48 -225 114 -225 36
0 80 52 95 112 17 72 18 104 4 165 -24 103 -80 157 -136 129z"/>
<path d="M1318 1963 c-54 -62 -66 -170 -28 -248 67 -138 167 15 120 182 -19
69 -62 100 -92 66z m38 -119 c-3 -9 -2 -12 4 -9 6 4 9 -6 8 -25 -3 -36 -22
-58 -34 -38 -12 19 -12 72 0 80 18 13 28 9 22 -8z"/>
</g>
</svg>
