<?xml version="1.0" encoding="UTF-8"?>
<svg version="1.1" xmlns="http://www.w3.org/2000/svg" width="1500" height="250">
<path d="M0 0 C495 0 990 0 1500 0 C1500 82.5 1500 165 1500 250 C1005 250 510 250 0 250 C0 167.5 0 85 0 0 Z " fill="#595959" transform="translate(0,0)"/>
<path d="M0 0 C495 0 990 0 1500 0 C1500 2.64 1500 5.28 1500 8 C1005 8 510 8 0 8 C0 5.36 0 2.72 0 0 Z " fill="#585858" transform="translate(0,242)"/>
<path d="M0 0 C495 0 990 0 1500 0 C1500 2.64 1500 5.28 1500 8 C1005 8 510 8 0 8 C0 5.36 0 2.72 0 0 Z " fill="#595858" transform="translate(0,0)"/>
<path d="M0 0 C495 0 990 0 1500 0 C1500 1.32 1500 2.64 1500 4 C1005 4 510 4 0 4 C0 2.68 0 1.36 0 0 Z " fill="#FFFFFF" transform="translate(0,238)"/>
<path d="M0 0 C495 0 990 0 1500 0 C1500 1.32 1500 2.64 1500 4 C1005 4 510 4 0 4 C0 2.68 0 1.36 0 0 Z " fill="#FFFFFF" transform="translate(0,8)"/>
<path d="M0 0 C9.24 0 18.48 0 28 0 C28.33 1.65 28.66 3.3 29 5 C19.43 5 9.86 5 0 5 C0 3.35 0 1.7 0 0 Z " fill="#F5F5F5" transform="translate(1460,122)"/>
<path d="M0 0 C9.24 0 18.48 0 28 0 C28.33 1.65 28.66 3.3 29 5 C19.43 5 9.86 5 0 5 C0 3.35 0 1.7 0 0 Z " fill="#F6F6F6" transform="translate(1425,122)"/>
<path d="M0 0 C9.24 0 18.48 0 28 0 C28.33 1.65 28.66 3.3 29 5 C19.43 5 9.86 5 0 5 C0 3.35 0 1.7 0 0 Z " fill="#F5F5F5" transform="translate(1390,122)"/>
<path d="M0 0 C9.24 0 18.48 0 28 0 C28.33 1.65 28.66 3.3 29 5 C19.43 5 9.86 5 0 5 C0 3.35 0 1.7 0 0 Z " fill="#F6F6F6" transform="translate(1355,122)"/>
<path d="M0 0 C9.24 0 18.48 0 28 0 C28.33 1.65 28.66 3.3 29 5 C19.43 5 9.86 5 0 5 C0 3.35 0 1.7 0 0 Z " fill="#F6F6F6" transform="translate(1320,122)"/>
<path d="M0 0 C9.24 0 18.48 0 28 0 C28.33 1.65 28.66 3.3 29 5 C19.43 5 9.86 5 0 5 C0 3.35 0 1.7 0 0 Z " fill="#F6F6F6" transform="translate(1285,122)"/>
<path d="M0 0 C9.24 0 18.48 0 28 0 C28.33 1.65 28.66 3.3 29 5 C19.43 5 9.86 5 0 5 C0 3.35 0 1.7 0 0 Z " fill="#F6F6F6" transform="translate(1250,122)"/>
<path d="M0 0 C9.24 0 18.48 0 28 0 C28.33 1.65 28.66 3.3 29 5 C19.43 5 9.86 5 0 5 C0 3.35 0 1.7 0 0 Z " fill="#F6F6F6" transform="translate(1215,122)"/>
<path d="M0 0 C9.24 0 18.48 0 28 0 C28.33 1.65 28.66 3.3 29 5 C19.43 5 9.86 5 0 5 C0 3.35 0 1.7 0 0 Z " fill="#F5F5F5" transform="translate(1180,122)"/>
<path d="M0 0 C9.24 0 18.48 0 28 0 C28.33 1.65 28.66 3.3 29 5 C19.43 5 9.86 5 0 5 C0 3.35 0 1.7 0 0 Z " fill="#F6F6F6" transform="translate(1145,122)"/>
<path d="M0 0 C9.24 0 18.48 0 28 0 C28.33 1.65 28.66 3.3 29 5 C19.43 5 9.86 5 0 5 C0 3.35 0 1.7 0 0 Z " fill="#F6F6F6" transform="translate(1110,122)"/>
<path d="M0 0 C9.24 0 18.48 0 28 0 C28.33 1.65 28.66 3.3 29 5 C19.43 5 9.86 5 0 5 C0 3.35 0 1.7 0 0 Z " fill="#F6F6F6" transform="translate(1075,122)"/>
<path d="M0 0 C9.24 0 18.48 0 28 0 C28.33 1.65 28.66 3.3 29 5 C19.43 5 9.86 5 0 5 C0 3.35 0 1.7 0 0 Z " fill="#F5F5F5" transform="translate(1040,122)"/>
<path d="M0 0 C9.24 0 18.48 0 28 0 C28.33 1.65 28.66 3.3 29 5 C19.43 5 9.86 5 0 5 C0 3.35 0 1.7 0 0 Z " fill="#F5F5F5" transform="translate(1005,122)"/>
<path d="M0 0 C9.24 0 18.48 0 28 0 C28.33 1.65 28.66 3.3 29 5 C19.43 5 9.86 5 0 5 C0 3.35 0 1.7 0 0 Z " fill="#F6F6F6" transform="translate(970,122)"/>
<path d="M0 0 C9.24 0 18.48 0 28 0 C28.33 1.65 28.66 3.3 29 5 C19.43 5 9.86 5 0 5 C0 3.35 0 1.7 0 0 Z " fill="#F6F6F6" transform="translate(935,122)"/>
<path d="M0 0 C9.24 0 18.48 0 28 0 C28.33 1.65 28.66 3.3 29 5 C19.43 5 9.86 5 0 5 C0 3.35 0 1.7 0 0 Z " fill="#F6F6F6" transform="translate(900,122)"/>
<path d="M0 0 C9.24 0 18.48 0 28 0 C28.33 1.65 28.66 3.3 29 5 C19.43 5 9.86 5 0 5 C0 3.35 0 1.7 0 0 Z " fill="#F6F6F6" transform="translate(865,122)"/>
<path d="M0 0 C9.24 0 18.48 0 28 0 C28.33 1.65 28.66 3.3 29 5 C19.43 5 9.86 5 0 5 C0 3.35 0 1.7 0 0 Z " fill="#F6F6F6" transform="translate(830,122)"/>
<path d="M0 0 C9.24 0 18.48 0 28 0 C28.33 1.65 28.66 3.3 29 5 C19.43 5 9.86 5 0 5 C0 3.35 0 1.7 0 0 Z " fill="#F6F6F6" transform="translate(795,122)"/>
<path d="M0 0 C9.24 0 18.48 0 28 0 C28.33 1.65 28.66 3.3 29 5 C19.43 5 9.86 5 0 5 C0 3.35 0 1.7 0 0 Z " fill="#F6F6F6" transform="translate(760,122)"/>
<path d="M0 0 C9.24 0 18.48 0 28 0 C28.33 1.65 28.66 3.3 29 5 C19.43 5 9.86 5 0 5 C0 3.35 0 1.7 0 0 Z " fill="#F6F6F6" transform="translate(725,122)"/>
<path d="M0 0 C9.24 0 18.48 0 28 0 C28.33 1.65 28.66 3.3 29 5 C19.43 5 9.86 5 0 5 C0 3.35 0 1.7 0 0 Z " fill="#F6F6F6" transform="translate(690,122)"/>
<path d="M0 0 C9.24 0 18.48 0 28 0 C28.33 1.65 28.66 3.3 29 5 C19.43 5 9.86 5 0 5 C0 3.35 0 1.7 0 0 Z " fill="#F6F6F6" transform="translate(655,122)"/>
<path d="M0 0 C9.24 0 18.48 0 28 0 C28.33 1.65 28.66 3.3 29 5 C19.43 5 9.86 5 0 5 C0 3.35 0 1.7 0 0 Z " fill="#F6F6F6" transform="translate(620,122)"/>
<path d="M0 0 C9.24 0 18.48 0 28 0 C28.33 1.65 28.66 3.3 29 5 C19.43 5 9.86 5 0 5 C0 3.35 0 1.7 0 0 Z " fill="#F6F6F6" transform="translate(585,122)"/>
<path d="M0 0 C9.24 0 18.48 0 28 0 C28.33 1.65 28.66 3.3 29 5 C19.43 5 9.86 5 0 5 C0 3.35 0 1.7 0 0 Z " fill="#F6F6F6" transform="translate(550,122)"/>
<path d="M0 0 C9.24 0 18.48 0 28 0 C28.33 1.65 28.66 3.3 29 5 C19.43 5 9.86 5 0 5 C0 3.35 0 1.7 0 0 Z " fill="#F6F6F6" transform="translate(515,122)"/>
<path d="M0 0 C9.24 0 18.48 0 28 0 C28.33 1.65 28.66 3.3 29 5 C19.43 5 9.86 5 0 5 C0 3.35 0 1.7 0 0 Z " fill="#F5F5F5" transform="translate(480,122)"/>
<path d="M0 0 C9.24 0 18.48 0 28 0 C28.33 1.65 28.66 3.3 29 5 C19.43 5 9.86 5 0 5 C0 3.35 0 1.7 0 0 Z " fill="#F6F6F6" transform="translate(445,122)"/>
<path d="M0 0 C9.24 0 18.48 0 28 0 C28.33 1.65 28.66 3.3 29 5 C19.43 5 9.86 5 0 5 C0 3.35 0 1.7 0 0 Z " fill="#F6F6F6" transform="translate(410,122)"/>
<path d="M0 0 C9.24 0 18.48 0 28 0 C28.33 1.65 28.66 3.3 29 5 C19.43 5 9.86 5 0 5 C0 3.35 0 1.7 0 0 Z " fill="#F6F6F6" transform="translate(375,122)"/>
<path d="M0 0 C9.24 0 18.48 0 28 0 C28.33 1.65 28.66 3.3 29 5 C19.43 5 9.86 5 0 5 C0 3.35 0 1.7 0 0 Z " fill="#F6F6F6" transform="translate(340,122)"/>
<path d="M0 0 C9.24 0 18.48 0 28 0 C28.33 1.65 28.66 3.3 29 5 C19.43 5 9.86 5 0 5 C0 3.35 0 1.7 0 0 Z " fill="#F6F6F6" transform="translate(305,122)"/>
<path d="M0 0 C9.24 0 18.48 0 28 0 C28.33 1.65 28.66 3.3 29 5 C19.43 5 9.86 5 0 5 C0 3.35 0 1.7 0 0 Z " fill="#F6F6F6" transform="translate(270,122)"/>
<path d="M0 0 C9.24 0 18.48 0 28 0 C28.33 1.65 28.66 3.3 29 5 C19.43 5 9.86 5 0 5 C0 3.35 0 1.7 0 0 Z " fill="#F6F6F6" transform="translate(235,122)"/>
<path d="M0 0 C9.24 0 18.48 0 28 0 C28.33 1.65 28.66 3.3 29 5 C19.43 5 9.86 5 0 5 C0 3.35 0 1.7 0 0 Z " fill="#F5F5F5" transform="translate(200,122)"/>
<path d="M0 0 C9.24 0 18.48 0 28 0 C28.33 1.65 28.66 3.3 29 5 C19.43 5 9.86 5 0 5 C0 3.35 0 1.7 0 0 Z " fill="#F6F6F6" transform="translate(165,122)"/>
<path d="M0 0 C9.24 0 18.48 0 28 0 C28.33 1.65 28.66 3.3 29 5 C19.43 5 9.86 5 0 5 C0 3.35 0 1.7 0 0 Z " fill="#F5F5F5" transform="translate(130,122)"/>
<path d="M0 0 C9.24 0 18.48 0 28 0 C28.33 1.65 28.66 3.3 29 5 C19.43 5 9.86 5 0 5 C0 3.35 0 1.7 0 0 Z " fill="#F6F6F6" transform="translate(95,122)"/>
<path d="M0 0 C9.24 0 18.48 0 28 0 C28.33 1.65 28.66 3.3 29 5 C19.43 5 9.86 5 0 5 C0 3.35 0 1.7 0 0 Z " fill="#F6F6F6" transform="translate(60,122)"/>
<path d="M0 0 C9.24 0 18.48 0 28 0 C28.33 1.65 28.66 3.3 29 5 C19.43 5 9.86 5 0 5 C0 3.35 0 1.7 0 0 Z " fill="#F6F6F6" transform="translate(25,122)"/>
<path d="M0 0 C5.94 0 11.88 0 18 0 C18.33 1.65 18.66 3.3 19 5 C12.73 5 6.46 5 0 5 C0 3.35 0 1.7 0 0 Z " fill="#F6F6F6" transform="translate(0,122)"/>
<path d="M0 0 C1.65 0 3.3 0 5 0 C5 1.65 5 3.3 5 5 C3.35 5 1.7 5 0 5 C0 3.35 0 1.7 0 0 Z " fill="#F3F3F3" transform="translate(1495,122)"/>
</svg>
